<?xml version="1.0" standalone="no"?>
<!DOCTYPE svg PUBLIC "-//W3C//DTD SVG 20010904//EN"
 "http://www.w3.org/TR/2001/REC-SVG-20010904/DTD/svg10.dtd">
<svg version="1.0" xmlns="http://www.w3.org/2000/svg"
 width="452pt" height="648pt" viewBox="0 0 452 648"
 preserveAspectRatio="xMidYMid meet">
<metadata>
Created by potrace 1.8, written by Peter Selinger 2001-2007
</metadata>
<g transform="translate(0,648) scale(0.410127,-0.410127)"
fill="#000000" stroke="none">
<path d="M592 1490 c-70 -38 -102 -87 -102 -155 0 -34 33 -120 51 -131 5 -3 9
-21 9 -39 0 -27 -6 -38 -27 -49 -45 -24 -121 -99 -132 -129 -17 -44 -13 -88
12 -131 32 -57 53 -67 78 -37 11 14 18 32 15 40 -27 81 -29 99 -17 143 16 57
79 128 114 128 34 0 89 -37 117 -80 17 -25 25 -54 28 -105 4 -66 2 -74 -28
-125 -19 -30 -42 -65 -54 -78 -25 -28 -89 -66 -141 -82 -106 -34 -155 -81
-195 -187 -30 -80 -28 -130 6 -198 57 -112 152 -165 307 -173 79 -4 93 -1 140
22 29 14 69 40 90 59 31 27 39 43 49 94 10 53 9 68 -7 108 -30 80 -66 111
-145 129 -89 20 -126 20 -175 -3 -87 -39 -122 -118 -86 -189 21 -41 90 -92
125 -92 65 0 130 96 119 177 -4 33 -2 44 10 49 24 9 64 -24 88 -72 18 -38 20
-55 14 -109 -8 -77 -30 -109 -92 -136 -141 -60 -331 16 -369 149 -28 96 -5
199 58 259 60 58 86 63 311 63 l204 0 -5 25 c-2 14 3 36 13 52 l18 26 -31 -21
c-25 -18 -44 -22 -109 -22 -92 0 -127 14 -131 53 -3 21 6 38 32 67 44 49 50
72 44 165 -5 69 -8 78 -47 129 -23 30 -49 57 -57 60 -8 3 -14 18 -14 34 0 22
9 37 36 57 48 37 88 124 81 172 -14 86 -120 129 -205 83z m141 -48 c11 -11 21
-39 24 -63 4 -37 0 -50 -26 -86 -33 -46 -63 -59 -114 -49 -94 18 -104 171 -14
212 41 18 104 11 130 -14z m-66 -987 c24 -17 40 -87 29 -129 -16 -62 -83 -76
-135 -27 -25 23 -31 37 -31 71 0 42 14 79 34 92 19 13 81 9 103 -7z"/>
</g>
</svg>
