<?xml version="1.0" encoding="utf-8"?>
<svg viewBox="-60 2.0 699.1 189.5" version="1.1" xmlns="http://www.w3.org/2000/svg"  xmlns:xlink="http://www.w3.org/1999/xlink">
<path id="orn_mordent" d="M0 21V80L129 230L146 240Q156 240 158 234L264 141L281 131L293 137L373 230L391 240Q399 240 403 234L508 141L517 134L525 129Q533 131 537 137L605 217V158L477 8Q463 -2 457 -2Q452 -2 447 4L342 98Q333 105 322 105Q316 105 313 102L232 8Q221 -2 213 -2Q208 -2 203 4L98 98Q89 107 78 107Q73 107 68 102L0 21Z" transform="scale(1.0, -1.0)"/>
<path id="figure_0" d="M0 259Q0 336 28 394T106 484T215 516Q272 516 320 482T398 387T427 259Q427 192 397 132T318 36T217 0Q167 0 114 32Q91 46 70 69T32 123Q0 184 0 259ZM213 37Q255 37 277 93T300 259Q300 348 278 414T213 481Q171 481 147 415T123 259Q123 213 128 172T145 100Q166 37 213 37Z" transform="scale(1.0, -1.0)"/>
<path id="figure_1" d="M48 0V36Q83 36 97 54Q109 75 109 111V361L27 232L0 245L107 496H235V106Q235 70 249 53T296 36V0H48Z" transform="scale(1.0, -1.0)"/>
<path id="figure_2" d="M3 0L0 29Q0 66 18 93Q26 107 35 116T57 136L87 156L131 187L178 218L215 247Q237 264 253 301Q271 337 271 371Q271 410 248 434T177 459Q158 459 150 458T127 451Q106 444 101 429Q106 416 111 411L135 394Q144 389 149 385T162 373Q169 362 169 346Q169 314 146 297T90 272Q62 272 38 297T14 366Q14 402 43 432T120 482Q165 498 215 498Q289 498 340 462T392 351Q392 305 361 274T279 218L188 177Q149 161 131 140L180 147Q213 147 234 141T288 119Q317 106 328 106Q358 106 367 167H402Q402 73 369 29T286 -15Q261 -15 240 -5L219 6L191 23Q163 44 145 53T104 65Q95 65 82 60Q78 58 73 55T62 46Q45 30 39 0H3Z" transform="scale(1.0, -1.0)"/>
<path id="figure_3" d="M255 266Q290 263 321 245Q352 229 367 203Q383 180 383 147Q383 99 351 66Q322 33 271 16L220 4Q197 0 167 0Q128 0 98 9T46 36Q34 44 27 51T11 71Q0 91 0 111Q0 145 20 170T70 196L73 194Q112 194 131 173T150 122Q150 110 138 91T124 63Q135 37 162 37Q196 37 225 57Q240 67 249 82T259 118Q259 186 223 216T116 247V284Q188 284 220 307Q252 333 252 385Q252 427 226 451Q202 476 162 476Q122 476 109 453Q111 450 113 447T122 440T135 432T146 420Q155 406 155 381Q155 376 155 370T149 355T132 336T108 322T81 317Q68 317 55 322T30 339Q10 359 10 395Q10 450 65 481Q92 497 125 506T194 515Q265 515 318 482Q347 464 361 443T376 395Q376 288 255 266Z" transform="scale(1.0, -1.0)"/>
<path id="figure_4" d="M143 0V36Q173 36 188 51T203 106V133H0V172Q60 241 89 308T134 494H307Q303 484 296 472T272 438Q254 411 233 385Q217 364 205 350L121 253Q72 199 41 172H203V274L330 397V172H387V133H330V99Q330 34 387 34V0H143Z" transform="scale(1.0, -1.0)"/>
<path id="figure_5" d="M17 237L22 494Q105 477 180 477Q240 477 313 494Q304 435 263 410T155 385L105 387Q94 388 83 390T56 397L51 286Q108 325 180 325Q226 325 267 305T333 248T357 166Q357 116 327 78T248 20T146 0Q110 0 78 12T23 52T0 115Q0 152 23 175Q34 186 46 192T75 198Q89 198 101 192Q114 188 124 176Q144 154 144 126Q144 120 140 108L126 88L113 71Q110 66 110 57Q110 34 146 34Q193 34 215 72T238 166Q238 193 227 221T194 268T141 288Q120 288 95 276T49 237H17Z" transform="scale(1.0, -1.0)"/>
<path id="figure_6" d="M203 259Q175 259 156 223Q148 209 141 187Q137 169 137 160T136 145Q136 101 154 69T206 37Q237 37 254 73T272 164Q272 184 265 199Q261 215 249 231Q229 259 203 259ZM126 252Q188 289 249 289Q289 289 323 274T375 228Q394 200 394 164Q394 116 368 81T296 21Q251 0 206 0Q141 0 94 36Q72 54 55 77T25 132T9 184T2 221T0 252Q0 268 1 285T7 325Q12 343 17 361T31 396Q59 462 116 487Q180 516 225 516Q268 516 302 499T353 456Q371 432 371 407Q371 373 349 353Q342 347 327 340T296 333Q270 333 246 351Q233 361 229 369T222 395L233 426Q242 449 242 462Q242 479 217 479Q175 479 150 430T124 289L126 252Z" transform="scale(1.0, -1.0)"/>
<path id="figure_7" d="M330 375Q317 364 306 356Q299 351 278 340T235 329Q208 332 191 346Q166 375 143 391Q123 408 101 408Q66 408 37 342H0V497H37Q43 470 58 467Q70 468 80 475L90 480L104 490Q108 493 117 497T136 506T160 511Q218 511 268 457Q285 435 312 431Q352 435 365 497H404Q400 463 393 434T384 398T375 376Q368 357 354 330L321 270Q303 240 290 211T268 151Q252 94 252 0H78Q78 68 111 122Q146 174 217 239Q284 296 309 321Q330 342 330 375Z" transform="scale(1.0, -1.0)"/>
<path id="figure_8" d="M136 233Q104 206 90 187T72 138Q81 92 111 65T191 37Q224 37 252 54Q275 71 284 107Q284 128 267 148T225 183L171 213Q139 229 136 233ZM247 307Q300 349 300 397Q300 437 265 456T184 476Q150 476 127 462T104 423Q106 409 113 396T131 371Q157 348 180 336L212 322L247 307ZM92 256Q58 272 34 307Q21 326 16 343T10 379Q10 409 25 435Q43 462 70 480Q124 515 194 515Q205 515 212 515T231 512Q239 512 245 511T272 503Q313 491 342 465T371 400Q371 343 300 281Q335 261 360 227T386 158Q386 110 352 73T268 18T171 0Q127 0 88 16Q50 29 24 61Q0 93 0 136Q0 209 92 256Z" transform="scale(1.0, -1.0)"/>
<path id="figure_9" d="M191 261Q221 261 239 294T257 375Q257 412 237 444T191 476Q163 476 142 443Q123 407 123 368Q123 324 141 293T191 261ZM268 261Q219 224 145 224Q100 224 64 245Q29 263 12 303Q6 317 0 356Q0 396 23 431T90 491Q136 513 194 513Q245 513 283 494T345 441T383 364T397 271Q397 224 383 175T342 88T274 26Q264 20 254 15T231 7Q211 0 184 0Q136 0 101 16T45 57T24 104Q24 138 46 161Q69 182 97 182Q127 182 149 164T171 115Q171 103 162 80L155 63L150 48Q153 35 182 35Q268 35 268 261Z" transform="scale(1.0, -1.0)"/>
<path id="fermata_up" d="M-376 -57H-338Q-338 -35 -337 -26T-329 4T-318 33T-305 58Q-277 109 -229 147T-117 209T1 232Q78 232 154 195T283 90Q295 73 305 55T322 18Q336 -19 336 -57H377Q372 -12 364 20Q357 56 341 94Q313 164 264 223T148 314Q115 330 78 339T1 348Q-78 348 -145 316T-262 225Q-286 198 -305 167T-341 95Q-353 61 -362 22T-376 -57ZM-62 1Q-62 -22 -44 -39T-1 -57Q27 -57 45 -40T64 1Q64 23 47 40T-1 57Q-27 57 -44 40T-62 1Z" transform="scale(1.0, -1.0)"/>
<path id="fermata_down" d="M64 -1Q64 -23 46 -41Q26 -58 -1 -58Q-24 -58 -43 -40T-62 -1Q-62 22 -44 39T-1 57Q27 57 45 40T64 -1ZM377 57Q372 12 364 -20Q357 -56 341 -94Q313 -164 264 -223T148 -314Q115 -330 78 -339T1 -348Q-78 -348 -144 -316T-262 -226Q-286 -198 -305 -167T-341 -95Q-353 -61 -362 -22T-376 57H-338Q-338 35 -337 26T-330 -2T-317 -35Q-314 -42 -305 -58Q-276 -110 -226 -149T-117 -210T1 -231Q81 -231 156 -195T283 -89Q309 -54 322 -18T336 57H377Z" transform="scale(1.0, -1.0)"/>
<path id="orn_trill" d="M-114 11L-100 66Q-125 88 -155 88Q-173 88 -184 77T-198 47Q-198 25 -184 11Q-177 6 -169 3T-153 0L-150 -2L-137 2L-114 11ZM-5 -143L53 71Q53 76 51 77T48 80Q37 80 -3 52L-46 19L-41 25Q-9 -28 -9 -73Q-9 -91 -13 -101T-19 -116T-31 -135Q-52 -161 -80 -161Q-103 -161 -125 -147Q-135 -141 -141 -131T-147 -109Q-146 -107 -144 -94L-124 -10Q-137 -18 -160 -18Q-173 -18 -182 -14T-200 1Q-216 18 -216 48Q-216 64 -212 74T-199 93Q-184 111 -153 111Q-124 111 -93 86L-59 203H4L-42 45L-4 76L28 96Q45 104 59 107T90 111Q114 111 114 90L113 80L110 68L107 56Q138 111 177 111Q194 111 205 97T216 64Q216 48 208 38T185 27Q177 27 171 32T162 52L165 66L167 77L168 86L164 90Q162 89 161 89Q152 84 145 79T133 69Q123 58 114 41L102 14L90 -20L55 -143H-5ZM-54 6L-90 -109L-91 -119Q-91 -134 -75 -138Q-27 -111 -27 -63Q-27 -33 -54 6Z" transform="scale(1.0, -1.0)"/>
<path id="meter_symb_2_cut" d="M161 149L119 143Q133 162 167 178L183 189V148L161 149ZM222 440Q242 417 242 374Q242 345 226 305L208 271V451L222 440ZM183 505Q143 505 105 488T40 438T13 369Q13 324 34 300Q54 274 80 274Q94 278 107 285T131 301Q152 319 152 350Q152 365 145 376L122 398L98 416Q92 427 90 434Q94 450 109 455T135 462T158 464Q175 464 183 462V242L159 222L119 191Q110 186 100 178Q85 165 77 159L52 139Q42 130 35 121T18 96Q-3 64 0 31L2 2H36Q41 33 56 47Q61 53 71 59T92 66Q99 66 108 64T131 54L171 25L183 16V-69H208V0L213 -2Q234 -11 239 -12T255 -14Q299 -14 330 30Q344 50 351 86T358 169H328Q317 107 291 107Q287 107 275 113T256 122Q231 136 208 143V202L250 222Q273 234 287 244T321 275Q349 309 349 354Q349 426 304 468Q265 505 208 505V564H183V505Z" transform="scale(1.0, -1.0)"/>
<path id="meter_symb_cut" d="M193 460Q129 426 129 316V195Q129 136 148 99Q165 62 193 50V460ZM191 580H223V513Q274 513 320 496T395 443T424 358Q424 334 411 314Q396 294 379 285L358 276L335 273Q302 276 279 295Q259 316 252 347Q252 376 279 400T333 428Q352 428 352 439Q352 448 337 457Q322 468 301 475T256 482Q241 482 223 476V37Q233 35 237 34T254 33Q291 33 324 60T377 127L395 167Q400 187 400 203H426Q417 96 359 48T223 0V-69H193V4Q120 17 62 81Q47 97 37 115T17 158Q1 203 1 256Q1 347 52 416T191 507V580Z" transform="scale(1.0, -1.0)"/>
<path id="head_whole" d="M405 0Q405 -69 336 -104Q281 -133 198 -133Q121 -133 65 -101Q0 -65 0 0Q0 65 64 102Q120 133 198 133Q277 133 336 101Q405 65 405 0ZM293 -21Q293 0 285 23Q274 53 252 77Q222 108 184 108L164 106Q141 99 128 78Q122 64 120 54T117 27Q117 4 126 -30T160 -85Q183 -108 222 -108Q228 -108 240 -106Q268 -98 280 -76T293 -21Z" transform="scale(1.0, -1.0)"/>
<path id="head_whole_fill" d="M198 -133Q121 -133 65 -101Q0 -65 0 0Q0 65 64 102Q120 133 198 133Q277 133 336 101Q405 65 405 0Q405 -69 336 -104Q281 -133 198 -133Z" transform="scale(1.0, -1.0)"/>
<path id="head_half" d="M14 -66Q18 -84 27 -91T63 -98Q113 -90 178 -45T256 35Q263 48 263 61Q263 77 252 88T220 100Q202 100 179 90Q86 43 47 3Q14 -31 14 -66ZM185 135Q206 135 226 130T263 111T289 80T299 38Q299 1 272 -39T191 -107T81 -135Q-15 -135 -15 -39Q-15 15 34 69Q94 135 185 135Z" transform="scale(1.0, -1.0)"/>
<path id="head_quarter" d="M185 135Q206 135 226 130T263 111T289 80T299 38Q299 1 272 -39T191 -107T81 -135Q-15 -135 -15 -39Q-15 15 34 69Q94 135 185 135Z" transform="scale(1.0, -1.0)"/>
<path id="slash_up" d="M206 -566Q224 -541 239 -500T255 -414Q255 -337 201 -281Q156 -235 87 -214Q60 -207 0 -196V-20Q24 -39 53 -65Q59 -70 154 -159Q209 -211 240 -267Q276 -333 276 -400Q276 -455 253 -511Q242 -538 233 -555T209 -590Q200 -597 196 -597Q191 -597 191 -592Q193 -587 195 -582T206 -566Z" transform="scale(1.0, -1.0)"/>
<path id="slash_down" d="M417 511Q440 455 440 400Q440 332 405 268Q375 212 318 159Q277 120 237 83T164 20V196Q224 207 251 214Q320 235 365 281Q419 337 419 414Q419 458 404 499T370 566Q363 575 357 587Q356 589 355 592Q355 597 360 597Q364 597 373 590Q382 579 392 562T417 511Z" transform="scale(1.0, -1.0)"/>
<path id="clef_G" d="M614 906Q614 861 536 772Q468 695 394 641V735Q419 843 469 930T583 1063Q601 1036 607 998T614 906ZM367 -236Q301 -236 251 -216T162 -158Q98 -95 98 14Q98 23 98 32Q100 45 100 51Q100 125 134 188Q162 239 228 306T363 441L371 449V262Q273 243 221 161Q178 93 178 6Q178 -47 195 -78Q195 -83 203 -81T207 -71Q207 29 231 82Q269 166 371 166V-237L367 -236ZM591 -30Q591 -110 532 -169T394 -236V167Q490 167 543 109Q591 56 591 -30ZM655 858Q656 866 656 875T656 890Q656 967 636 1047T583 1154Q517 1120 441 1011Q371 911 371 872V620Q369 610 270 524Q156 424 94 334Q0 197 0 59Q0 -14 22 -72Q54 -156 128 -206Q220 -268 371 -268V-503Q371 -550 319 -590T204 -631Q159 -631 126 -608Q87 -581 66 -525Q93 -546 118 -556T166 -567Q211 -567 240 -530T269 -446Q269 -396 246 -365Q217 -327 157 -327Q96 -327 67 -367T37 -473Q37 -494 39 -514T47 -548Q68 -601 113 -628T211 -655Q284 -655 337 -612Q394 -565 394 -491V-267Q483 -267 566 -212Q679 -137 679 -1Q679 127 597 201Q525 266 425 266L394 265V473Q472 551 506 588Q570 659 605 718Q648 791 655 858Z" transform="scale(1.0, -1.0)"/>
<path id="clef_F" d="M158 111Q186 111 200 105Q208 102 215 98T229 87T246 62L262 23Q262 -2 255 -17Q251 -34 236 -48Q229 -56 222 -61Q219 -63 203 -73Q193 -79 179 -84T152 -91Q122 -91 95 -83Q72 -74 40 -47Q5 -15 5 53Q5 84 13 114Q22 141 37 165Q60 206 98 226T183 256L220 262L236 266Q277 266 310 261T373 243Q428 219 460 176Q493 138 510 84Q528 36 528 -23Q528 -92 511 -154T460 -273Q393 -381 287 -450Q267 -463 232 -482Q204 -498 174 -512Q116 -539 48 -561L18 -566Q4 -566 4 -558Q6 -550 8 -548L14 -542Q45 -529 64 -520Q94 -506 110 -498L188 -455Q223 -434 249 -412T301 -360Q346 -308 375 -230Q379 -218 385 -197T397 -153T407 -97T413 -58Q402 45 390 82Q386 100 384 105T374 122Q362 140 343 156Q308 188 225 200Q191 200 163 194T112 172Q70 143 70 99Q70 91 70 83Q73 75 74 72Q110 105 158 111ZM642 -60Q654 -60 665 -64T682 -78T692 -95T698 -118Q698 -131 693 -139Q690 -148 680 -160Q665 -176 642 -176Q615 -176 601 -159Q585 -142 585 -118Q585 -94 601 -77Q615 -60 642 -60ZM642 177Q665 177 681 160T698 119Q698 97 682 79T642 61L619 64Q611 67 601 77Q585 95 585 119L588 142Q593 153 601 160Q616 177 642 177Z" transform="scale(1.0, -1.0)"/>
<path id="clef_C" d="M0 546H128V-536H0V546ZM190 546H237V50Q246 55 256 63T277 81Q294 100 306 123Q316 146 322 176Q327 209 327 244Q339 187 406 178Q468 193 491 235T515 358Q515 393 507 420T481 466Q451 504 406 504Q376 504 356 481T335 413Q340 423 349 428T377 439Q386 439 395 435L413 424L424 409L431 389Q424 337 371 337Q329 337 308 364T287 443Q294 468 301 483T320 510Q331 522 345 528Q347 530 357 534T374 540L411 544L449 546Q551 546 603 495T655 352L659 316Q659 231 593 171Q560 144 513 128Q463 114 403 114L302 19V-17L403 -107Q451 -107 483 -114T552 -137Q609 -166 628 -210Q634 -222 639 -234T647 -262Q655 -292 655 -323Q655 -376 639 -414T591 -481Q556 -507 515 -520T421 -534Q395 -534 373 -529T330 -511T297 -480Q285 -459 285 -438Q297 -338 369 -329Q393 -329 413 -348T434 -387Q425 -425 371 -431Q356 -431 339 -414Q339 -428 341 -435T343 -445L354 -469Q369 -486 411 -493Q442 -486 463 -473T493 -440T506 -390T510 -313Q510 -245 481 -206Q466 -188 448 -176Q429 -168 408 -168L380 -178Q368 -183 361 -189Q343 -204 324 -241Q324 -168 309 -121Q301 -97 285 -80T237 -50V-536H190V546Z" transform="scale(1.0, -1.0)"/>
<path id="clef_G8" d="M614 906Q614 861 536 772Q468 695 394 641V735Q419 843 469 930T583 1063Q601 1036 607 998T614 906ZM367 -236Q301 -236 251 -216T162 -158Q98 -95 98 14Q98 23 98 32Q100 45 100 51Q100 125 134 188Q162 239 228 306T363 441L371 449V262Q273 243 221 161Q178 93 178 6Q178 -47 195 -78Q195 -83 203 -81T207 -71Q207 29 231 82Q269 166 371 166V-237L367 -236ZM591 -30Q591 -110 532 -169T394 -236V167Q490 167 543 109Q591 56 591 -30ZM655 858Q656 866 656 875T656 890Q656 967 636 1047T583 1154Q517 1120 441 1011Q371 911 371 872V620Q369 610 270 524Q156 424 94 334Q0 197 0 59Q0 -14 22 -72Q54 -156 128 -206Q220 -268 371 -268V-503Q371 -550 319 -590T204 -631Q159 -631 126 -608Q87 -581 66 -525Q93 -546 118 -556T166 -567Q211 -567 240 -530T269 -446Q269 -396 246 -365Q217 -327 157 -327Q96 -327 67 -367T37 -473Q37 -494 39 -514T47 -548Q68 -601 113 -628T211 -655Q284 -655 337 -612Q394 -565 394 -491V-267Q483 -267 566 -212Q679 -137 679 -1Q679 127 597 201Q525 266 425 266L394 265V473Q472 551 506 588Q570 659 605 718Q648 791 655 858ZM556 -532Q591 -532 617 -556T643 -615Q643 -640 634 -656T602 -695Q629 -731 629 -770Q629 -802 608 -823T545 -844Q457 -844 457 -749Q467 -706 500 -682Q486 -668 475 -647T464 -610Q464 -575 491 -554T556 -532ZM563 -555Q545 -555 533 -566T520 -595Q520 -610 532 -628Q537 -635 562 -653Q566 -656 573 -661Q588 -663 608 -648T628 -614Q628 -593 610 -576T563 -555ZM518 -719Q492 -719 482 -734Q479 -739 471 -763Q475 -793 492 -813Q497 -818 505 -822Q522 -831 538 -831Q554 -831 566 -822T583 -789Q573 -760 567 -752Q553 -733 518 -719Z" transform="scale(1.0, -1.0)"/>
<path id="alt_sharp" d="M136 200V382H153V205L197 220V123L153 108V-70L197 -57V-155L153 -169V-336H136V-174L60 -198V-364H43V-204L0 -218V-121L43 -106V73L0 58V157L43 171V353H60V177L136 200ZM60 78V-101L136 -77V103L60 78Z" transform="scale(1.0, -1.0)"/>
<path id="alt_natural" d="M20 -202V377H38V172L177 196V-377H160V-177L20 -202ZM38 -108L160 -89V100L38 80V-108Z" transform="scale(1.0, -1.0)"/>
<path id="alt_flat" d="M22 494H42V116Q72 132 93 138T135 144Q152 144 163 141T189 130Q208 118 216 90L220 64Q220 19 175 -30Q159 -49 145 -66T110 -101L22 -184V494ZM135 106L127 110L112 112Q95 112 79 106T42 81V-123Q88 -74 113 -35Q145 15 145 54Q146 68 146 75Q146 84 144 91T135 106Z" transform="scale(1.0, -1.0)"/>
<path id="alt_double_sharp" d="M-20 114H58V63L74 47H157L173 62V114H251V46H188L162 19V-17L188 -48H251V-114H172V-62L157 -48H73L58 -62V-114H-20V-46H43L70 -17V19L41 47H-20V114Z" transform="scale(1.0, -1.0)"/>
<path id="rest_4" d="M61 650Q60 651 59 652T58 655L56 658Q60 662 63 662Q82 662 105 641T200 554Q226 530 234 521T249 505T259 490Q268 478 268 461Q268 430 230 396Q211 380 198 368T178 346T165 319T154 265Q175 197 217 137Q234 110 259 79T324 0Q311 0 267 21L201 52L179 58L154 59Q114 59 90 27L86 13L85 0Q85 -31 106 -58Q114 -68 127 -83T154 -111Q182 -134 184 -143L181 -146Q163 -138 154 -130Q148 -128 132 -118T106 -102Q67 -80 39 -48Q7 -16 0 27Q0 128 85 128Q150 128 230 73Q200 114 171 143L137 175L94 212Q50 248 32 269T13 310Q133 412 133 505Q133 522 129 540T114 577Q96 615 61 650Z" transform="scale(1.0, -1.0)"/>
<path id="rest_8" d="M0 392Q6 420 25 435Q44 452 73 455Q103 452 117 441Q122 437 128 425T139 402Q139 387 138 382T134 373T127 365Q119 353 85 344L98 341L114 340Q159 340 205 368Q227 381 242 399T267 443L275 444L290 446L143 0H105L222 347Q206 338 166 330L112 322H101L80 323Q78 323 58 329Q0 342 0 392Z" transform="scale(1.0, -1.0)"/>
<path id="rest_16" d="M109 329Q120 321 157 321Q188 321 215 326T274 347L205 140Q185 118 161 104T110 90Q99 90 84 95Q111 99 125 114T139 153Q126 184 114 192T71 206Q12 199 0 143Q0 92 58 82Q70 72 103 72Q126 72 149 77T189 93L75 -249H114L258 191L341 445H336L326 443L319 442Q308 416 295 399T256 367T206 345T164 337Q146 337 137 343Q165 346 179 364T190 402Q179 427 174 433Q162 448 123 453Q63 446 51 391Q51 340 109 329Z" transform="scale(1.0, -1.0)"/>
<path id="rest_32" d="M415 689L396 687Q393 675 387 664T373 643Q359 624 337 611T290 590T243 582Q226 582 218 588Q249 595 260 608T271 646Q264 671 247 684T207 698Q178 698 156 679Q147 672 141 661T131 636Q131 584 190 573Q199 568 214 567T244 565Q251 565 260 565T297 573Q318 576 332 580T354 591L285 383Q269 364 243 350T192 336Q180 336 167 341Q203 351 208 360Q219 374 219 391Q219 415 200 433T152 451Q123 447 105 432T81 390Q81 340 138 326Q148 321 160 319T186 317Q211 317 232 323T271 339L207 142Q203 133 175 114Q140 91 111 91Q95 91 85 96Q123 105 134 123Q139 131 139 153Q128 185 112 195Q104 200 72 206Q14 200 1 145Q1 120 14 104T59 81Q78 71 113 71Q161 71 188 89L207 142L78 -248H117L420 688L415 689Z" transform="scale(1.0, -1.0)"/>
<path id="rest_64" d="M195 -4L260 190L195 -4ZM269 819Q277 814 289 812T316 810Q346 810 383 819T434 835L369 634Q348 612 330 600Q303 582 273 582Q261 582 249 585Q283 596 293 611Q300 622 300 643Q290 673 278 682T232 695Q175 689 160 634Q160 581 219 570Q233 563 262 563Q306 563 350 582L286 385Q262 361 239 349T192 336Q178 336 166 340Q203 352 213 366Q219 374 219 398Q210 427 197 436T152 451Q90 443 81 388Q81 339 136 327Q147 323 159 320T188 317Q210 317 228 321T270 338L204 139Q157 90 109 90Q98 90 85 95Q113 104 119 108Q139 122 139 154Q129 182 116 191T71 206Q10 199 0 142Q0 118 15 102T57 81Q71 73 103 73Q128 73 148 77T191 93L157 -4L78 -248H113L195 -4L260 190L420 683L503 935L495 936L488 932H482Q460 881 415 855T326 828L311 829Q308 831 305 831T297 833Q329 840 339 853T350 893Q343 917 331 928Q315 943 282 943Q256 940 236 924T212 882Q212 831 269 819Z" transform="scale(1.0, -1.0)"/>
<path id="rest_128" d="M360 845Q364 843 371 841T383 838T406 837Q435 837 472 845T532 863L463 654Q440 628 421 616Q395 599 367 599Q353 599 336 605Q371 612 382 625T393 665Q383 694 368 704T323 720Q261 709 249 655Q249 604 309 590L328 583Q336 581 362 581Q393 581 411 586T445 603L378 398Q363 379 335 363T279 346Q266 346 253 351Q289 358 301 377Q309 389 309 412Q299 442 286 451T240 466Q208 462 191 446T165 401Q165 350 225 336Q231 333 247 331T277 328Q302 328 321 332T360 350L295 143Q266 115 242 104T197 92Q190 92 183 94T170 98Q206 107 218 124Q226 135 226 158Q214 189 202 199T156 213Q126 209 108 192T84 147Q84 96 141 84Q148 80 161 77T196 74Q217 74 238 79T278 97L210 -109Q186 -135 162 -147T114 -160Q99 -160 88 -156Q122 -145 132 -133T143 -96Q135 -66 120 -56T73 -41Q11 -50 -1 -106Q-1 -158 60 -171L78 -177Q81 -178 97 -178Q121 -178 148 -174T195 -158L162 -258L80 -510H117L350 198L515 704L601 964H595L586 961H577Q574 949 568 938T554 916Q546 907 536 899T513 884Q464 854 419 854Q413 854 408 855T391 859Q412 863 426 874Q445 889 445 916Q445 942 426 957T376 975Q314 966 301 909Q301 859 360 845Z" transform="scale(1.0, -1.0)"/>
<path id="head_whole_diamond" d="M178 234L359 11L178 -211L0 11L178 234ZM144 139L78 55L219 -117L284 -35L144 139Z" transform="scale(1.0, -1.0)"/>
<path id="head_whole_filldiamond" d="M178 234L359 11L178 -211L0 11L178 234Z" transform="scale(1.0, -1.0)"/>
<path id="head_half_diamond" d="M146 234L324 11L146 -211L-34 11L146 234ZM112 139L45 55L185 -117L250 -35L112 139Z" transform="scale(1.0, -1.0)"/>
<path id="head_quarter_filldiamond" d="M146 234L324 11L146 -211L-34 11L146 234Z" transform="scale(1.0, -1.0)"/>
<path id="slash_up_mensural" d="M0 0L162 -111V-237L0 -125V0Z" transform="scale(1.0, -1.0)"/>
<path id="slash_down_mensural" d="M164 6L2 117V243L164 132V6Z" transform="scale(1.0, -1.0)"/>
<path id="clef_G_mensural" d="M341 743Q361 754 384 755T427 749T460 725T477 688Q481 664 464 628T423 574Q410 564 405 556T399 536Q399 528 402 522T409 514T424 500T446 473Q466 448 470 435T478 387Q481 341 476 322T448 278Q435 263 431 253T427 233Q429 214 448 206T514 198Q547 198 560 201Q573 203 587 212L607 226L595 209Q583 192 587 175L590 158H454Q405 158 379 157T330 155T294 148T271 136T248 116Q216 86 206 39T209 -56Q216 -82 235 -104T279 -140T334 -163T395 -169T454 -155Q485 -142 498 -123T516 -65Q519 -38 517 -25T506 8Q494 32 477 46T448 56Q442 53 441 46T441 23Q445 -3 434 -31T404 -72T364 -85Q346 -85 318 -70T279 -34Q261 2 277 37T336 92Q360 104 384 104T452 94Q492 85 513 67T549 8Q557 -12 558 -24T554 -63T543 -101T521 -126Q496 -148 461 -165Q437 -177 422 -179T368 -180Q291 -176 242 -149T164 -65Q147 -31 146 -2T160 67Q180 120 208 147T290 191Q315 199 343 215T383 246Q398 262 419 298Q434 323 437 335T438 381Q435 427 419 451Q405 472 382 488T341 504T299 476T266 419Q260 397 262 380Q264 357 277 324Q278 320 275 312T267 297Q254 282 243 287T215 322Q190 365 207 409Q213 424 243 453T295 494Q305 500 309 507T313 527Q313 549 307 553Q298 558 286 590T273 640Q273 674 289 699T341 743ZM435 711Q422 724 396 726T348 721Q331 713 320 697T308 663T310 627T326 596T357 580Q383 575 400 582T433 612Q446 630 449 640T450 669Q449 682 445 694T435 711ZM391 55Q380 63 356 64T322 60Q312 53 306 36T300 -2Q300 -19 304 -28Q305 -32 320 -49Q333 -64 356 -68Q375 -71 390 -61T410 -31Q415 -10 409 18T391 55Z" transform="scale(1.0, -1.0)"/>
<path id="clef_F_mensural" d="M236 -260L266 -250V-753H236V-260ZM253 355L395 177L253 -1L109 177L253 355ZM226 279L172 212L284 74L336 140L226 279ZM253 67L395 -111L253 -289L109 -111L253 67ZM226 -9L172 -76L284 -214L336 -148L226 -9Z" transform="scale(1.0, -1.0)"/>
<path id="clef_C_mensural" d="M154 595H182V353H474V595H503V64H182V-64H503V-602H474V-355H182V-602H154V595ZM474 255H182V164H474V255ZM474 -172H182V-263H474V-172Z" transform="scale(1.0, -1.0)"/>
<path id="clef_G_chiavette" d="M516 693Q516 685 515 680T513 673Q507 668 503 668Q442 700 361 700Q310 689 284 676T239 632Q230 613 225 594T219 546Q219 535 220 524T224 503L239 465Q253 437 295 398L341 352L421 347L516 345Q534 345 534 332Q534 323 509 313L438 305Q420 303 404 301T374 296T347 289T315 275Q229 229 187 176T133 75L125 26L122 -28Q139 -202 289 -202Q337 -202 393 -180T477 -124Q561 -57 561 10Q561 60 503 94Q451 94 392 107Q338 107 276 57Q259 57 259 69Q293 114 310 128Q327 144 367 154T477 164Q548 144 567 133Q585 125 602 97T632 4Q611 -109 535 -177T302 -273Q219 -273 158 -247T60 -169T13 -34Q13 57 50 131Q65 169 90 198Q101 214 114 227T144 255Q171 279 202 297T271 332Q145 408 135 507Q135 567 144 605Q152 631 156 640T169 660L189 683L219 713Q293 758 380 758Q469 758 516 693Z" transform="scale(1.0, -1.0)"/>
<path id="alt_sharp_mensural" d="M138 0L119 -24L101 0L119 24L138 0ZM180 130L119 50L57 130H36L108 38L90 14L0 129V103L80 0L0 -104V-130L90 -13L108 -38L36 -130H57L119 -51L180 -130H203L130 -37L148 -13L240 -130V-104L159 0L240 103V129L148 13L130 37L203 130H180Z" transform="scale(1.0, -1.0)"/>
<path id="alt_natural_mensural" d="M30 -143V379H42V144H164V-334H152V-143H30ZM42 -58H152V71H42V-58Z" transform="scale(1.0, -1.0)"/>
<path id="alt_flat_mensural" d="M156 10Q156 36 131 55Q101 78 42 78V-73Q101 -73 133 -43Q156 -20 156 10ZM30 -112V529H42V102L54 103L68 104Q118 104 155 87Q207 59 207 0Q207 -56 152 -86Q103 -112 30 -112Z" transform="scale(1.0, -1.0)"/>
<path id="alt_double_sharp_mensural" d="M0 114H78V64L94 47H177L193 62V114H271V46H208L182 19V-17L208 -47H271V-114H192V-61L177 -47H93L78 -61V-114H0V-44H63L90 -17V19L61 47H0V114Z" transform="scale(1.0, -1.0)"/>
<path id="rest_4_mensural" d="M80 0V170H250V91H139V0H80Z" transform="scale(1.0, -1.0)"/>
<path id="rest_8_mensural" d="M250 0H191V91H80V170H250V0Z" transform="scale(1.0, -1.0)"/>
<path id="rest_16_mensural" d="M242 86H186V187H80V262H242V86ZM242 0H186V86H80V162H242V0Z" transform="scale(1.0, -1.0)"/>
<path id="rest_32_mensural" d="M242 86H186V187H80V262H242V86ZM242 0H186V86H80V162H242V0ZM242 186H186V287H80V362H242V186Z" transform="scale(1.0, -1.0)"/>
<path id="rest_64_mensural" d="M242 86H186V187H80V262H242V86ZM242 0H186V86H80V162H242V0ZM242 186H186V287H80V362H242V186ZM242 286H186V387H80V461H242V286Z" transform="scale(1.0, -1.0)"/>
<path id="rest_128_mensural" d="M242 86H186V187H80V262H242V86ZM242 0H186V86H80V162H242V0ZM242 186H186V283H80V358H242V186ZM242 282H186V383H80V457H242V282ZM242 383H186V483H80V558H242V383Z" transform="scale(1.0, -1.0)"/>
<path id="meter_symb_3_cut" d="M196 208Q209 198 218 172T228 116Q228 108 228 98T219 73T198 49T174 35V225Q182 221 186 217T196 208ZM198 443Q222 416 222 377Q222 322 193 299L174 287V461Q188 455 198 443ZM148 506Q100 502 57 473Q9 440 9 386Q9 351 27 330Q35 321 47 315T71 308Q87 310 96 314T116 327Q127 340 130 347Q137 358 137 372Q137 399 129 410T109 431Q104 434 99 440Q98 441 96 444Q109 468 143 468H148V279Q138 277 128 276T102 275V239Q126 239 148 234V29H143Q118 29 110 55Q110 64 122 82Q131 96 131 116Q131 144 115 164T66 185L63 186L61 189Q34 189 18 163T1 103Q1 81 9 67T24 44T40 28Q59 12 87 1Q114 -8 147 -8L148 -61H174V-7L193 -4L239 8Q283 26 310 59T337 139Q337 171 324 195T283 237Q268 245 254 251T223 259Q331 279 331 386Q331 413 319 433T280 473Q255 489 230 498T174 507V573H148V506Z" transform="scale(1.0, -1.0)"/>
<path id="meter_symb_common" d="M0 273Q0 331 33 390Q49 419 70 441T119 481Q174 516 235 516Q272 516 320 496Q343 487 360 475T394 444Q422 408 422 365Q422 326 397 300Q382 288 368 282T333 275Q304 275 281 293Q261 311 255 345Q255 362 259 373T276 397Q295 420 326 428L336 430Q344 432 345 434Q350 439 350 441Q343 460 314 472T259 484Q227 484 200 467T156 424Q130 380 130 269Q130 168 138 130Q145 106 154 90T179 61Q210 35 252 35Q286 35 317 55T370 113T399 203H427Q427 161 412 126T367 58Q312 0 223 0Q154 0 104 40Q79 60 60 85T27 144Q0 207 0 273Z" transform="scale(1.0, -1.0)"/>
<path id="oblique_figure_8" d="M274 60Q274 44 261 28T205 -9L219 -29L229 -45Q235 -57 236 -63L239 -82Q239 -128 199 -152Q165 -171 115 -171Q73 -171 40 -151Q0 -126 0 -84Q0 -52 29 -28Q53 -10 89 4Q82 14 78 21T68 39L62 57L61 76Q61 113 95 134T169 155Q190 155 207 148Q215 145 222 141T241 128Q258 114 265 97Q274 80 274 60ZM235 68L236 76Q236 86 232 95Q229 106 220 114Q203 136 176 136Q157 136 143 127T126 99Q126 67 160 33L192 3Q228 25 235 68ZM175 -109Q175 -98 167 -84Q165 -81 156 -67Q155 -65 149 -59T139 -49L101 -9L76 -26L58 -42L46 -63Q42 -74 42 -91Q42 -116 65 -136L89 -148Q100 -152 115 -152Q146 -152 161 -140Q176 -132 176 -115L175 -109Z" transform="scale(1.0, -1.0)"/>
<path id="oblique_figure_1" d="M207 155L122 -120Q119 -125 127 -130L135 -133L153 -135H164L158 -156H0L6 -135H21Q31 -135 42 -130Q56 -128 62 -110L117 66L46 10L36 20L145 155H207Z" transform="scale(1.0, -1.0)"/>
<path id="oblique_figure_6" d="M214 106Q214 95 212 90L204 76Q198 66 176 61L163 62L151 69Q145 75 145 89L146 100L154 110L171 126Q168 136 151 136Q106 136 82 62L73 31L67 -5Q88 13 106 21T150 29Q170 26 188 7Q202 -7 206 -32Q206 -84 171 -129Q155 -149 135 -160Q127 -165 114 -168T88 -171Q38 -171 19 -144T0 -63Q0 -54 0 -45T3 -25Q3 -14 4 -8T12 14Q25 56 47 87T95 134Q124 155 154 155Q181 155 196 143Q203 137 208 128T214 106ZM149 -33L146 -23L140 -11Q133 -3 120 0L114 1Q97 1 77 -32L63 -72Q58 -94 58 -113Q58 -130 63 -140T85 -152Q112 -152 133 -105Q141 -83 145 -67T149 -33Z" transform="scale(1.0, -1.0)"/>
<path id="oblique_figure_0" d="M243 65Q243 24 234 -11T202 -87Q152 -171 79 -171Q42 -171 21 -144T0 -78Q0 0 43 71Q69 114 99 134T166 155Q201 155 222 128T243 65ZM191 97Q191 115 183 124T166 136Q117 136 81 29Q52 -56 52 -114L54 -128Q56 -131 57 -134T61 -140Q68 -150 81 -152Q126 -152 163 -45L184 33Q191 65 191 97Z" transform="scale(1.0, -1.0)"/>
<path id="oblique_figure_2" d="M260 75Q260 35 220 11L150 -21Q95 -36 54 -81H75L101 -83L113 -89L130 -96L155 -106Q164 -110 176 -110L191 -106L202 -98Q209 -91 221 -72L238 -81L222 -109Q219 -114 212 -126T202 -140Q174 -171 145 -171H135L125 -166L99 -151L84 -140Q66 -130 52 -130Q40 -133 31 -142L28 -147L23 -156H0Q0 -116 20 -84Q31 -70 39 -63L67 -38L105 -17L126 -5L145 4Q169 15 184 34Q203 56 203 79L204 91Q204 111 192 122Q183 136 164 136Q121 136 112 92L115 80L117 64Q117 52 115 48Q108 35 92 35Q81 35 72 44Q66 53 66 63Q66 98 97 126T166 155Q206 155 229 142Q260 123 260 75Z" transform="scale(1.0, -1.0)"/>
<path id="oblique_figure_4" d="M259 -46L253 -67H194L178 -119Q174 -128 187 -133L221 -135L215 -156H60L66 -135L84 -134L99 -130Q112 -125 119 -107L132 -67H0L5 -46Q23 -31 44 -7L77 36Q97 63 117 104L128 130L138 155H235L199 106Q191 96 178 83T150 57L111 20L35 -43L143 -46L163 26L243 103H248L204 -46H259Z" transform="scale(1.0, -1.0)"/>
<path id="oblique_figure_5" d="M240 155Q222 130 202 116Q173 97 151 97H141L119 99L109 103L93 110L57 2L75 14L95 23L117 28L143 31Q156 31 173 26Q182 22 186 20T197 9Q219 -12 219 -49Q219 -97 178 -136Q135 -171 84 -171Q63 -171 50 -168T23 -156Q0 -139 0 -105L1 -91Q4 -84 8 -77Q19 -67 35 -63Q45 -63 54 -72L58 -81L60 -92L56 -105Q54 -108 53 -110T48 -116L41 -132Q41 -144 51 -148L64 -152H79Q112 -152 138 -107Q161 -67 161 -32L158 -19Q157 -14 151 -8T137 1L122 5L105 4L89 1L72 -9L49 -27H28L90 155Q96 153 106 151T125 146L158 143H168L191 146L240 155Z" transform="scale(1.0, -1.0)"/>
<path id="oblique_figure_3" d="M255 87Q255 53 228 26Q208 8 173 -7Q212 -38 212 -71Q212 -110 174 -142Q168 -147 157 -154T136 -164Q118 -171 94 -171H82Q76 -171 62 -169Q46 -165 35 -160Q0 -145 0 -115Q0 -70 37 -66Q48 -66 58 -75T71 -97Q71 -105 60 -118L53 -123Q47 -129 47 -139L58 -148L75 -152Q106 -152 131 -115Q150 -83 150 -45Q143 -22 127 -16T84 -10L90 13Q141 13 167 26Q197 44 197 96Q194 119 185 127T158 136L138 133Q126 128 126 117Q129 107 131 103L135 92L138 82L135 70Q128 61 115 57Q104 55 92 62T79 84Q79 113 105 134T161 155Q202 155 229 140Q241 131 248 117T255 87Z" transform="scale(1.0, -1.0)"/>
<path id="oblique_figure_7" d="M243 155Q238 117 225 88Q212 53 168 -17L151 -52L138 -87Q134 -102 131 -120T128 -156H28Q31 -134 52 -102Q63 -85 88 -53Q95 -44 108 -29T138 3Q162 28 179 53T208 107L206 109Q182 85 163 77Q158 74 153 73T140 72H132L105 88Q92 96 75 96Q67 96 58 90L42 76Q32 60 21 34H0L38 155H58Q50 141 50 134Q50 128 52 126L61 120L85 140Q91 145 97 148Q110 155 125 155Q131 155 143 149L148 145Q155 141 158 134Q175 120 191 120L204 121L213 128Q215 130 218 138T224 155H243Z" transform="scale(1.0, -1.0)"/>
<path id="oblique_figure_9" d="M225 44Q225 28 222 11T214 -25Q203 -58 182 -91Q136 -159 70 -171L62 -172Q42 -172 20 -156Q11 -148 6 -138T0 -112V-104Q2 -98 4 -96Q11 -85 27 -82Q37 -82 45 -90Q50 -92 53 -109L51 -119L48 -136Q45 -152 61 -152Q91 -152 122 -98L136 -63Q140 -56 144 -42T151 -19L127 -32L114 -40Q104 -44 96 -46T77 -48Q44 -48 27 -28Q8 -10 8 24Q8 73 40 114T131 155Q175 155 202 124Q211 111 219 89Q221 79 223 67T225 44ZM167 93Q167 108 161 120T140 136Q109 136 88 100T66 29Q66 11 71 -1T97 -19Q123 -22 148 20Q156 35 161 53T167 93Z" transform="scale(1.0, -1.0)"/>
	  <script xlink:href="showbboxdims.js"/>
				</svg>
