/* XPM */
static char * ax_xpm[] = {
/* columns rows colors chars-per-pixel */
"32 32 52 1",
"  c #040404",
". c #161616",
"X c gray11",
"o c #330000",
"O c #333300",
"+ c #222222",
"@ c gray16",
"# c gray20",
"$ c #393939",
"% c #003366",
"& c #333366",
"* c #336666",
"= c #663333",
"- c gray30",
"; c #555555",
": c #5F5F5F",
"> c gray40",
", c #777777",
"< c #003399",
"1 c #333399",
"2 c #0033CC",
"3 c #3333CC",
"4 c #336699",
"5 c #0066FF",
"6 c #3366CC",
"7 c #3366FF",
"8 c #666699",
"9 c #6666CC",
"0 c #669999",
"q c #6699CC",
"w c #6699FF",
"e c #868686",
"r c gray59",
"t c gray60",
"y c #ADA990",
"u c #A0A0A4",
"i c #B2B2B2",
"p c #9999CC",
"a c #99CCCC",
"s c #99CCFF",
"d c #A6CAF0",
"f c #C0C0C0",
"g c gray80",
"h c #D7D7D7",
"j c #DDDDDD",
"k c #CCCCFF",
"l c #CCECFF",
"z c gray89",
"x c #EAEAEA",
"c c #F1F1F1",
"v c gray100",
"b c None",
/* pixels */
"bbbbbbbbbbbbbeeeeeeebbbbbbbbbbbb",
"bbbbbbbbbbeeuiiiiiiiiebbbbbbbbbb",
"bbbbbbbbeeuuifgggggfiuiebbbbbbbb",
"bbbbbbberuifghhzzxzhgiueebbbbbbb",
"bbbbbberuifgghxxxcxzhgfuueebbbbb",
"bbbbberuiiffgzccvvcxzhfiurebbbbb",
"bbbbeeruiifhxcvvvvvcxhgiureebbbb",
"bbbbeeruifgzxcvvvvvvczgfiteeebbb",
"bbbeeetuifghzxccvccxczhfiueerebb",
"bbbrerruifgghzzxllxxzjhffureeebb",
"bbereeruiii6pghhsskjhhgfiureeteb",
"bbureeruuu62qgggdssdhggu8treeueb",
"betuertuu6226fgggdswpgi1<%ereueb",
"buuirruu82226ifhxgdw3q1<<>ereuee",
"buuityue<2825pfgggf622<1ruyrruue",
"buuiyyr1<0u25qfffffu22<0iutrtiue",
"buiiyr&<<22259fggfp322<4uutruiue",
"btifi*%<144356fcca7260<<4rrriiue",
"brifu%%8iiit55pga756ti0<<%etiiue",
"betffe*riiii65qu656uiuu81>tifuub",
"beriffiyiiiip79q56uiiiyuyyufiutb",
"bbeifffiyiiiiuiiquiiiiuuyuifiubb",
"bberffffiiiiiiiiiiiiiyyyufffurbb",
"bbbeifggfiiiiiiiiiiiiyyyfffitbbb",
"bbbbeifggfiiyiiyiyyiyuiffffubbbb",
"bbbbbrfggggfiiiiiiuyifffgfubbbbb",
"bbbbbbrifgggggfffifffgffftbbbbbb",
"bbbbbbb,eifgfggggfffffir:>bbbbbb",
"bbbbbbb>#-rififffffiir:$=>bbbbbb",
"bbbbbbb;@+#;,ruiute,;=#O$-bbbbbb",
"bbbbbbb#@+.XX+#-;$@XoX++@$bbbbbb",
"bbbbbbb#+..X........X...+#bbbbbb"
};
